<svg width="231" height="188" viewBox="0 0 231 188" fill="none" xmlns="http://www.w3.org/2000/svg">
<mask id="path-1-inside-1_542_40" fill="white">
<path d="M88.5 40C137.377 40 177 71.3401 177 110C177 148.66 137.377 180 88.5 180C75.6808 180 63.4982 177.844 52.5 173.966C40.061 183.818 31.3741 186.455 14 188L30.5 162.873C11.815 150.039 0 131.111 0 110C0 71.3401 39.6228 40 88.5 40Z"/>
</mask>
<path d="M88.5 40C137.377 40 177 71.3401 177 110C177 148.66 137.377 180 88.5 180C75.6808 180 63.4982 177.844 52.5 173.966C40.061 183.818 31.3741 186.455 14 188L30.5 162.873C11.815 150.039 0 131.111 0 110C0 71.3401 39.6228 40 88.5 40Z" fill="#6466E9"/>
<path d="M52.5 173.966L54.1628 169.25L51.5594 168.332L49.3955 170.046L52.5 173.966ZM14 188L9.82056 185.256L4.1468 193.896L14.4428 192.98L14 188ZM30.5 162.873L34.6794 165.618L37.3674 161.524L33.3309 158.752L30.5 162.873ZM88.5 40V45C135.772 45 172 75.1309 172 110H177H182C182 67.5492 138.982 35 88.5 35V40ZM177 110H172C172 144.869 135.772 175 88.5 175V180V185C138.982 185 182 152.451 182 110H177ZM88.5 180V175C76.2395 175 64.6196 172.938 54.1628 169.25L52.5 173.966L50.8372 178.681C62.3767 182.75 75.1221 185 88.5 185V180ZM52.5 173.966L49.3955 170.046C43.4714 174.739 38.6706 177.534 33.4351 179.384C28.1311 181.258 22.1101 182.259 13.5572 183.02L14 188L14.4428 192.98C23.264 192.196 30.2736 191.107 36.7663 188.813C43.3275 186.495 49.0896 183.046 55.6045 177.885L52.5 173.966ZM14 188L18.1794 190.744L34.6794 165.618L30.5 162.873L26.3206 160.129L9.82056 185.256L14 188ZM30.5 162.873L33.3309 158.752C15.6916 146.636 5 129.118 5 110H0H-5C-5 133.103 7.93835 153.442 27.6691 166.994L30.5 162.873ZM0 110H5C5 75.1309 41.2276 45 88.5 45V40V35C38.018 35 -5 67.5492 -5 110H0Z" fill="#E1E7FD" mask="url(#path-1-inside-1_542_40)"/>
<mask id="path-3-inside-2_542_40" fill="white">
<path d="M132 0C186.676 0 231 34.9218 231 78C231 101.852 217.411 123.204 196 137.512L214.5 164C192.564 164.158 183.211 160.732 170.5 149.882C158.665 153.821 145.655 156 132 156C77.3238 156 33 121.078 33 78C33 34.9218 77.3238 0 132 0Z"/>
</mask>
<path d="M132 0C186.676 0 231 34.9218 231 78C231 101.852 217.411 123.204 196 137.512L214.5 164C192.564 164.158 183.211 160.732 170.5 149.882C158.665 153.821 145.655 156 132 156C77.3238 156 33 121.078 33 78C33 34.9218 77.3238 0 132 0Z" fill="#E1E7FD"/>
<path d="M196 137.512L193.222 133.354L188.978 136.19L191.901 140.375L196 137.512ZM214.5 164L214.536 169L224.043 168.931L218.599 161.137L214.5 164ZM170.5 149.882L173.746 146.079L171.599 144.246L168.921 145.138L170.5 149.882ZM132 0V5C185.091 5 226 38.7283 226 78H231H236C236 31.1152 188.261 -5 132 -5V0ZM231 78H226C226 99.821 213.575 119.754 193.222 133.354L196 137.512L198.778 141.669C221.247 126.654 236 103.884 236 78H231ZM196 137.512L191.901 140.375L210.401 166.863L214.5 164L218.599 161.137L200.099 134.649L196 137.512ZM214.5 164L214.464 159C203.709 159.078 196.516 158.264 190.602 156.319C184.773 154.402 179.823 151.266 173.746 146.079L170.5 149.882L167.254 153.685C173.888 159.348 179.97 163.35 187.479 165.819C194.904 168.26 203.355 169.08 214.536 169L214.5 164ZM170.5 149.882L168.921 145.138C157.601 148.906 145.125 151 132 151V156V161C146.186 161 159.729 158.737 172.079 154.626L170.5 149.882ZM132 156V151C78.9088 151 38 117.272 38 78H33H28C28 124.885 75.7388 161 132 161V156ZM33 78H38C38 38.7283 78.9088 5 132 5V0V-5C75.7388 -5 28 31.1152 28 78H33Z" fill="#6466E9" fill-opacity="0.5" mask="url(#path-3-inside-2_542_40)"/>
<path d="M133.5 30C141.123 30 147.947 36.8741 152.529 47.71C164.219 46.3785 173.559 48.9467 177.304 55.5869L177.458 55.8701C180.979 62.5033 178.3 71.7144 171.183 80.9141C178.088 90.4804 180.429 99.9063 176.458 106.431L176.286 106.704C172.32 112.862 163.332 115.072 152.217 113.588C147.64 124.006 140.952 130.575 133.5 130.575L133.177 130.57C125.684 130.379 118.987 123.547 114.47 112.864C102.781 114.195 93.4417 111.628 89.6974 104.988C85.9461 98.3356 88.5989 88.9924 95.8175 79.6611C88.913 70.095 86.5726 60.6688 90.5431 54.1445C94.4171 47.7788 103.505 45.4798 114.783 46.9854C119.36 36.5687 126.048 30.0002 133.5 30ZM133.038 108.09C128.412 109.885 123.879 111.21 119.576 112.062C119.817 112.595 120.062 113.115 120.314 113.621C124.576 122.202 129.533 125.575 133.5 125.575C137.467 125.575 142.424 122.202 146.687 113.621C146.839 113.314 146.988 113.001 147.137 112.685C142.634 111.692 137.879 110.156 133.038 108.09ZM167.852 84.8643C164.897 88.0974 161.42 91.2823 157.496 94.3047C156.744 99.5302 155.583 104.405 154.086 108.779C154.434 108.817 154.779 108.852 155.12 108.882C164.666 109.701 170.125 107.221 172.188 103.832C174.25 100.443 173.945 94.4548 168.831 86.3525C168.52 85.8588 168.193 85.3623 167.852 84.8643ZM99.0158 83.7197C98.6581 84.2063 98.3154 84.6916 97.9874 85.1748C92.6072 93.1025 92.1043 99.0765 94.0529 102.532C96.0015 105.988 101.374 108.649 110.942 108.147C111.506 108.118 112.079 108.076 112.66 108.024C111.24 103.708 110.141 98.9249 109.434 93.8135C105.455 90.5678 101.955 87.1599 99.0158 83.7197ZM151.707 98.4258C149.805 99.6775 147.825 100.89 145.771 102.048C143.7 103.216 141.62 104.291 139.548 105.277C142.838 106.458 146.032 107.36 149.067 107.983C150.113 105.062 151.005 101.858 151.707 98.4258ZM115.245 98.1953C115.903 101.459 116.733 104.52 117.704 107.33C120.554 106.809 123.545 106.054 126.625 105.062C124.587 104.007 122.544 102.864 120.513 101.628C118.695 100.522 116.938 99.3745 115.245 98.1953ZM133.872 57.9082C130.517 59.3006 127.101 60.9571 123.686 62.8828C120.282 64.8025 117.106 66.8622 114.186 69.0059C113.753 72.6022 113.519 76.3795 113.519 80.2871C113.519 84.0503 113.734 87.6928 114.137 91.1689C116.898 93.3204 119.897 95.3996 123.112 97.3564C126.461 99.3945 129.821 101.163 133.128 102.666C136.484 101.274 139.901 99.6181 143.316 97.6924C146.72 95.7728 149.894 93.7129 152.815 91.5693C153.247 87.9727 153.482 84.1951 153.482 80.2871C153.482 76.5239 153.266 72.8815 152.863 69.4053C150.103 67.254 147.103 65.1755 143.888 63.2188C140.539 61.1806 137.18 59.4114 133.872 57.9082ZM133.5 70.2295C139.055 70.2295 143.558 74.7326 143.558 80.2871C143.558 85.8417 139.055 90.3447 133.5 90.3447C127.946 90.3445 123.444 85.8415 123.444 80.2871C123.444 74.7328 127.946 70.2297 133.5 70.2295ZM158.287 74.0029C158.415 76.0616 158.482 78.1589 158.482 80.2871C158.482 82.6453 158.399 84.9655 158.243 87.2373C160.676 85.124 162.861 82.9656 164.777 80.8066C162.889 78.5312 160.718 76.2474 158.287 74.0029ZM108.757 73.3359C106.325 75.4492 104.14 77.6087 102.225 79.7676C104.112 82.0427 106.282 84.3272 108.712 86.5713C108.585 84.5126 108.519 82.4153 108.519 80.2871C108.519 77.9286 108.601 75.6081 108.757 73.3359ZM172.948 58.042C170.999 54.5865 165.627 51.926 156.059 52.4277C155.494 52.4573 154.921 52.498 154.339 52.5498C155.76 56.8663 156.859 61.6492 157.567 66.7607C161.545 70.0063 165.045 73.4143 167.985 76.8545C168.342 76.3682 168.685 75.8834 169.013 75.4004C174.393 67.4725 174.897 61.4977 172.948 58.042ZM111.88 51.6934C102.334 50.874 96.877 53.3552 94.8146 56.7441C92.7522 60.1331 93.0562 66.1205 98.1701 74.2227C98.4816 74.7163 98.8084 75.212 99.1496 75.71C102.104 72.4772 105.58 69.2916 109.503 66.2695C110.255 61.044 111.417 56.1693 112.914 51.7949C112.567 51.7572 112.222 51.7227 111.88 51.6934ZM149.297 53.2441C146.447 53.7652 143.457 54.5205 140.376 55.5117C142.415 56.5667 144.456 57.7111 146.487 58.9473C148.305 60.0536 150.063 61.1998 151.755 62.3789C151.097 59.1148 150.268 56.0542 149.297 53.2441ZM117.934 52.5908C116.887 55.5127 115.995 58.7172 115.292 62.1494C117.195 60.8975 119.175 59.6858 121.23 58.5273C123.301 57.3594 125.38 56.2835 127.452 55.2969C124.162 54.1161 120.968 53.2144 117.934 52.5908ZM133.5 35C129.533 35.0002 124.576 38.3727 120.314 46.9531C120.161 47.2604 120.011 47.5728 119.862 47.8896C124.365 48.8824 129.121 50.4184 133.962 52.4844C138.588 50.6895 143.122 49.3628 147.425 48.5107C147.184 47.9787 146.938 47.4593 146.687 46.9531C142.424 38.3726 137.467 35 133.5 35Z" fill="#6466E9"/>
</svg>